<?xml version="1.0" encoding="utf-8"?>
<!-- Generator: Adobe Illustrator 16.0.0, SVG Export Plug-In . SVG Version: 6.00 Build 0)  -->
<!DOCTYPE svg PUBLIC "-//W3C//DTD SVG 1.1//EN" "http://www.w3.org/Graphics/SVG/1.1/DTD/svg11.dtd">
<svg version="1.1" xmlns="http://www.w3.org/2000/svg" xmlns:xlink="http://www.w3.org/1999/xlink" x="0px" y="0px" width="353px"
	 height="307px" viewBox="0 0 353 307" enable-background="new 0 0 353 307" xml:space="preserve">
<g id="Layer_1">
	<polygon display="inline" fill="#ED423E" points="87.584,1.25 0.334,155.25 87.647,306.938 170.989,114.399 	"/>
	
		<text transform="matrix(0.4389 -0.8986 0.8986 0.4389 78.3188 181.7197)" display="inline" fill="#FFFFFF" font-family="'MyriadPro-Bold'" font-size="27.732">VALUES</text>
	<polygon display="inline" fill="#F78F21" points="87.584,1.25 264.709,0 352.666,153.23 213.584,172.125 	"/>
	
		<text transform="matrix(0.5888 0.8083 -0.8083 0.5888 185.5059 54.1172)" display="inline" fill="#FFFFFF" font-family="'MyriadPro-Bold'" font-size="27.8707">VISION</text>
	<polygon display="inline" fill="#AAD03A" points="352.666,153.23 141.86,181.338 87.647,306.938 265.377,305.918 	"/>
	
		<text transform="matrix(0.9856 -0.1692 0.1692 0.9856 152.8398 255.6035)" display="inline" fill="#FFFFFF" font-family="'MyriadPro-Bold'" font-size="30.5863">MISSON</text>
</g>
<g id="Layer_2">
	<polyline fill="none" stroke="#000000" stroke-miterlimit="10" points="87.584,1.328 264.709,0 352.666,153.23 213.349,171.806 	
		"/>
	<polyline fill="none" stroke="#000000" stroke-miterlimit="10" points="352.666,153.23 265.377,305.918 87.647,306.938 
		142.023,181.316 	"/>
	<polyline fill="none" stroke="#000000" stroke-miterlimit="10" points="170.99,114.36 142.023,181.316 213.349,171.806 
		170.99,114.36 87.584,1.25 0.334,155.25 87.647,306.938 	"/>
</g>
</svg>
